<svg xmlns="http://www.w3.org/2000/svg" width="500" height="500" viewBox="0 0 500 500">
<g>
<path d="M 218.68 270.94 C217.14,271.52 211.40,272.00 205.93,272.00 L 196.00 272.00 L 196.00 233.00 L 206.54 233.00 C215.14,233.00 217.81,233.37 221.04,235.02 C229.58,239.38 233.61,252.00 229.20,260.58 C226.77,265.30 222.52,269.49 218.68,270.94 ZM 127.00 265.43 L 127.00 272.00 L 117.00 272.00 L 117.00 233.00 L 129.78 233.00 C143.77,233.00 145.72,233.63 148.51,239.01 C149.33,240.60 150.00,244.00 150.00,246.57 C150.00,250.68 149.52,251.71 146.01,255.23 L 142.02 259.22 L 143.83 261.86 C144.83,263.31 146.66,266.19 147.91,268.25 L 150.16 272.00 L 139.50 271.87 L 135.50 265.69 C132.86,261.60 130.74,259.39 129.25,259.18 C127.11,258.88 127.00,259.19 127.00,265.43 ZM 276.00 261.50 L 276.00 272.00 L 266.00 272.00 L 266.00 252.50 C266.00,241.77 266.35,233.00 266.78,233.00 C267.21,233.00 271.82,235.77 277.03,239.15 C282.24,242.53 286.98,245.31 287.57,245.32 C288.16,245.33 293.02,242.50 298.36,239.04 C303.70,235.58 308.20,232.91 308.35,233.12 C308.50,233.33 308.43,242.16 308.20,252.75 L 307.78 272.00 L 299.07 272.00 L 298.78 261.08 L 298.50 250.15 L 292.89 253.64 L 287.28 257.12 L 282.75 254.06 C280.25,252.38 277.71,251.00 277.10,251.00 C276.37,251.00 276.00,254.50 276.00,261.50 ZM 395.00 256.00 L 395.00 272.00 L 386.00 272.00 L 386.00 233.00 L 395.00 233.00 L 395.00 248.00 L 407.00 248.00 L 407.00 233.00 L 417.00 233.00 L 417.00 272.00 L 407.00 272.00 L 407.00 256.00 L 395.00 256.00 ZM 263.00 264.08 L 263.00 272.00 L 235.00 272.00 L 235.00 233.00 L 263.00 233.00 L 263.00 241.00 L 243.87 241.00 L 244.19 244.25 L 244.50 247.50 L 252.25 247.79 L 260.00 248.08 L 260.00 255.92 L 252.25 256.21 L 244.50 256.50 L 244.50 263.50 L 253.75 263.79 ZM 165.11 269.75 C164.10,271.67 163.12,272.00 158.38,272.00 L 152.83 272.00 L 156.27 265.75 C158.17,262.31 162.78,253.75 166.53,246.72 C170.28,239.70 173.82,234.11 174.40,234.30 C175.38,234.63 194.81,269.58 194.94,271.25 C194.97,271.66 192.56,272.00 189.57,272.00 C184.96,272.00 184.04,271.69 183.48,269.94 C182.65,267.33 179.15,266.00 173.18,266.02 C167.91,266.03 166.80,266.54 165.11,269.75 ZM 377.06 269.88 C369.88,272.97 364.10,272.38 357.56,267.90 C352.17,264.21 349.63,259.55 349.18,252.55 C348.87,247.69 349.24,245.45 350.85,242.29 C355.95,232.29 367.53,228.33 377.91,233.05 L 382.33 235.05 L 379.58 237.92 C377.02,240.59 376.42,240.76 371.08,240.27 C367.56,239.95 364.47,240.21 363.11,240.94 C360.07,242.57 357.01,247.87 357.01,251.50 C357.01,255.04 359.94,259.84 363.19,261.65 C366.05,263.23 371.45,263.36 374.17,261.91 C375.86,261.00 376.69,261.29 379.10,263.60 C380.70,265.12 382.00,266.68 382.00,267.06 C382.00,267.44 379.78,268.71 377.06,269.88 ZM 104.00 242.00 L 104.00 272.00 L 94.00 272.00 L 94.00 242.00 L 84.00 242.00 L 84.00 233.00 L 114.00 233.00 L 114.00 242.00 ZM 206.00 242.00 L 206.00 263.00 L 210.60 263.00 C214.50,263.00 215.72,262.48 218.60,259.60 C223.16,255.04 223.35,249.66 219.10,245.11 C216.59,242.42 215.51,242.00 211.10,242.00 ZM 127.00 241.00 L 127.00 251.00 L 132.93 251.00 C140.94,251.00 143.77,248.17 140.96,242.93 C140.11,241.33 138.83,241.00 133.46,241.00 ZM 171.00 258.55 C171.00,258.80 172.59,259.00 174.53,259.00 L 178.05 259.00 L 176.50 256.00 C175.65,254.35 174.58,253.00 174.13,253.00 C173.43,253.00 171.00,257.29 171.00,258.55 Z" fill="rgb(6,11,45)"/>
<path d="M 347.00 287.00 L 347.00 304.00 L 154.00 304.00 L 154.00 287.00 ZM 292.41 297.50 C293.50,299.17 294.96,300.00 296.82,300.00 C300.30,300.00 302.00,298.35 302.00,295.00 C302.00,291.65 300.30,290.00 296.82,290.00 C294.96,290.00 293.50,290.83 292.41,292.50 C290.89,294.82 290.89,295.18 292.41,297.50 ZM 170.75 298.92 C175.01,301.40 179.00,299.51 179.00,295.00 C179.00,291.70 177.30,290.00 174.00,290.00 C172.57,290.00 170.86,290.54 170.20,291.20 C168.40,293.00 168.74,297.75 170.75,298.92 ZM 309.00 294.94 C309.00,297.72 309.45,300.00 310.00,300.00 C310.55,300.00 311.00,299.33 311.00,298.50 C311.00,297.67 311.46,297.00 312.03,297.00 C312.60,297.00 313.32,297.67 313.64,298.50 C314.91,301.81 316.59,299.92 316.55,295.25 L 316.50 290.50 L 309.00 289.88 ZM 186.00 295.00 C186.00,298.78 186.37,300.00 187.50,300.00 C188.46,300.00 189.01,299.01 189.04,297.25 L 189.07 294.50 L 191.32 297.25 C192.56,298.76 193.90,300.00 194.29,300.00 C194.68,300.00 195.00,297.75 195.00,295.00 C195.00,292.25 194.55,290.00 194.00,290.00 C193.45,290.00 192.99,291.24 192.97,292.75 L 192.94 295.50 L 190.88 292.75 C187.65,288.41 186.00,289.17 186.00,295.00 ZM 226.00 295.00 C226.00,297.75 226.45,300.00 227.00,300.00 C227.55,300.00 228.01,298.54 228.02,296.75 L 228.03 293.50 L 230.12 296.75 C233.24,301.63 235.00,301.00 235.00,295.00 C235.00,291.22 234.63,290.00 233.50,290.00 C232.55,290.00 232.00,290.96 232.00,292.63 L 232.00 295.27 L 229.93 292.63 C226.92,288.81 226.00,289.36 226.00,295.00 ZM 324.00 290.00 L 324.00 300.00 L 327.50 300.00 C329.42,300.00 331.00,299.55 331.00,299.00 C331.00,298.45 330.10,298.00 329.00,298.00 C327.90,298.00 327.00,297.55 327.00,297.00 C327.00,296.45 327.90,296.00 329.00,296.00 C330.10,296.00 331.00,295.55 331.00,295.00 C331.00,294.45 330.10,294.00 329.00,294.00 C327.90,294.00 327.00,293.55 327.00,293.00 C327.00,292.45 327.90,292.00 329.00,292.00 C330.10,292.00 331.00,291.55 331.00,291.00 C331.00,290.45 329.42,290.00 327.50,290.00 ZM 242.00 290.00 L 242.00 300.00 L 245.50 300.00 C247.43,300.00 249.00,299.55 249.00,299.00 C249.00,298.45 247.88,298.00 246.50,298.00 C245.12,298.00 244.00,297.55 244.00,297.00 C244.00,296.45 244.90,296.00 246.00,296.00 C247.10,296.00 248.00,295.55 248.00,295.00 C248.00,294.45 247.10,294.00 246.00,294.00 C244.90,294.00 244.00,293.55 244.00,293.00 C244.00,292.45 245.12,292.00 246.50,292.00 C247.88,292.00 249.00,291.55 249.00,291.00 C249.00,290.45 247.43,290.00 245.50,290.00 ZM 264.71 299.38 C265.10,299.77 266.57,299.96 267.96,299.80 C271.58,299.37 271.92,295.74 268.49,294.18 C267.06,293.53 266.18,292.52 266.53,291.95 C266.97,291.24 267.64,291.29 268.61,292.09 C270.22,293.43 271.56,292.71 270.54,291.07 C269.55,289.47 264.30,289.78 263.65,291.47 C263.00,293.16 265.46,296.00 267.57,296.00 C268.36,296.00 269.00,296.50 269.00,297.11 C269.00,297.79 268.04,297.98 266.50,297.59 C264.10,296.99 263.21,297.88 264.71,299.38 ZM 280.00 296.00 C280.00,298.89 280.42,300.00 281.50,300.00 C282.58,300.00 283.00,298.89 283.00,296.00 C283.00,293.11 283.42,292.00 284.50,292.00 C285.33,292.00 286.00,291.55 286.00,291.00 C286.00,290.45 283.98,290.00 281.50,290.00 C279.02,290.00 277.00,290.45 277.00,291.00 C277.00,291.55 277.67,292.00 278.50,292.00 C279.58,292.00 280.00,293.11 280.00,296.00 ZM 203.00 295.00 L 203.00 300.00 L 206.50 300.00 C208.43,300.00 210.00,299.55 210.00,299.00 C210.00,298.45 208.88,298.00 207.50,298.00 C205.25,298.00 205.00,297.60 205.00,294.00 C205.00,291.80 204.55,290.00 204.00,290.00 C203.45,290.00 203.00,292.25 203.00,295.00 ZM 298.99 296.51 C297.58,298.22 297.03,298.30 295.15,297.11 C293.13,295.83 294.20,292.55 296.76,292.18 C299.45,291.80 300.77,294.37 298.99,296.51 ZM 176.50 295.01 C176.50,298.36 172.49,299.12 171.49,295.96 C170.67,293.38 172.08,291.68 174.64,292.17 C175.86,292.40 176.50,293.39 176.50,295.01 ZM 216.00 295.00 C216.00,297.75 216.45,300.00 217.00,300.00 C217.55,300.00 218.00,297.75 218.00,295.00 C218.00,292.25 217.55,290.00 217.00,290.00 C216.45,290.00 216.00,292.25 216.00,295.00 ZM 314.30 293.51 C313.96,295.25 311.00,295.24 311.00,293.50 C311.00,292.47 311.66,291.98 312.75,292.19 C313.71,292.38 314.41,292.97 314.30,293.51 Z" fill="rgb(49,71,166)"/>
<path d="M 323.42 269.15 C322.07,271.77 321.49,272.00 316.38,272.00 L 310.82 272.00 L 314.77 264.75 C316.94,260.76 321.51,252.22 324.93,245.76 C328.36,239.31 331.51,233.80 331.95,233.53 C332.65,233.10 353.00,269.64 353.00,271.33 C353.00,271.70 350.58,272.00 347.62,272.00 C342.57,272.00 342.17,271.82 340.98,268.95 C339.72,265.91 339.69,265.90 332.31,266.10 C325.26,266.29 324.83,266.43 323.42,269.15 ZM 329.00 258.22 C329.00,258.65 330.35,259.00 332.00,259.00 C335.26,259.00 335.77,257.60 333.57,254.69 C332.26,252.97 332.12,252.99 330.60,255.16 C329.72,256.42 329.00,257.79 329.00,258.22 Z" fill="rgb(248,88,88)"/>
<path d="M 0.00 250.00 L 0.00 0.00 L 250.00 0.00 L 500.00 0.00 L 500.00 250.00 L 500.00 500.00 L 250.00 500.00 L 0.00 500.00 L 0.00 250.00 ZM 347.00 295.50 L 347.00 287.00 L 250.50 287.00 L 154.00 287.00 L 154.00 295.50 L 154.00 304.00 L 250.50 304.00 L 347.00 304.00 L 347.00 295.50 ZM 104.00 257.00 L 104.00 242.00 L 109.00 242.00 L 114.00 242.00 L 114.00 237.50 L 114.00 233.00 L 99.00 233.00 L 84.00 233.00 L 84.00 237.50 L 84.00 242.00 L 89.00 242.00 L 94.00 242.00 L 94.00 257.00 L 94.00 272.00 L 99.00 272.00 L 104.00 272.00 L 104.00 257.00 ZM 127.00 265.43 C127.00,259.19 127.11,258.88 129.25,259.18 C130.74,259.39 132.86,261.60 135.50,265.69 L 139.50 271.87 L 144.83 271.94 L 150.16 272.00 L 147.91 268.25 C146.66,266.19 144.83,263.31 143.83,261.86 L 142.02 259.22 L 146.01 255.23 C149.52,251.71 150.00,250.68 150.00,246.57 C150.00,244.00 149.33,240.60 148.51,239.01 C145.72,233.63 143.77,233.00 129.78,233.00 L 117.00 233.00 L 117.00 252.50 L 117.00 272.00 L 122.00 272.00 L 127.00 272.00 L 127.00 265.43 ZM 165.11 269.75 C166.80,266.54 167.91,266.03 173.18,266.02 C179.15,266.00 182.65,267.33 183.48,269.94 C184.04,271.69 184.96,272.00 189.57,272.00 C192.56,272.00 194.97,271.66 194.94,271.25 C194.81,269.58 175.38,234.63 174.40,234.30 C173.82,234.11 170.28,239.70 166.53,246.72 C162.78,253.75 158.17,262.31 156.27,265.75 L 152.83 272.00 L 158.38 272.00 C163.12,272.00 164.10,271.67 165.11,269.75 ZM 218.68 270.94 C222.52,269.49 226.77,265.30 229.20,260.58 C233.61,252.00 229.58,239.38 221.04,235.02 C217.81,233.37 215.14,233.00 206.54,233.00 L 196.00 233.00 L 196.00 252.50 L 196.00 272.00 L 205.93 272.00 C211.40,272.00 217.14,271.52 218.68,270.94 ZM 263.00 268.04 L 263.00 264.08 L 253.75 263.79 L 244.50 263.50 L 244.50 260.00 L 244.50 256.50 L 252.25 256.21 L 260.00 255.92 L 260.00 252.00 L 260.00 248.08 L 252.25 247.79 L 244.50 247.50 L 244.19 244.25 L 243.87 241.00 L 253.44 241.00 L 263.00 241.00 L 263.00 237.00 L 263.00 233.00 L 249.00 233.00 L 235.00 233.00 L 235.00 252.50 L 235.00 272.00 L 249.00 272.00 L 263.00 272.00 L 263.00 268.04 ZM 276.00 261.50 C276.00,254.50 276.37,251.00 277.10,251.00 C277.71,251.00 280.25,252.38 282.75,254.06 L 287.28 257.12 L 292.89 253.64 L 298.50 250.15 L 298.78 261.08 L 299.07 272.00 L 303.42 272.00 L 307.78 272.00 L 308.20 252.75 C308.43,242.16 308.50,233.33 308.35,233.12 C308.20,232.91 303.70,235.58 298.36,239.04 C293.02,242.50 288.16,245.33 287.57,245.32 C286.98,245.31 282.24,242.53 277.03,239.15 C271.82,235.77 267.21,233.00 266.78,233.00 C266.35,233.00 266.00,241.77 266.00,252.50 L 266.00 272.00 L 271.00 272.00 L 276.00 272.00 L 276.00 261.50 ZM 323.42 269.15 C324.83,266.43 325.26,266.29 332.31,266.10 C339.69,265.90 339.72,265.91 340.98,268.95 C342.17,271.82 342.57,272.00 347.62,272.00 C350.58,272.00 353.00,271.70 353.00,271.33 C353.00,269.64 332.65,233.10 331.95,233.53 C331.51,233.80 328.36,239.31 324.93,245.76 C321.51,252.22 316.94,260.76 314.77,264.75 L 310.82 272.00 L 316.38 272.00 C321.49,272.00 322.07,271.77 323.42,269.15 ZM 377.06 269.88 C379.78,268.71 382.00,267.44 382.00,267.06 C382.00,266.68 380.70,265.12 379.10,263.60 C376.69,261.29 375.86,261.00 374.17,261.91 C371.45,263.36 366.05,263.23 363.19,261.65 C359.94,259.84 357.01,255.04 357.01,251.50 C357.01,247.87 360.07,242.57 363.11,240.94 C364.47,240.21 367.56,239.95 371.08,240.27 C376.42,240.76 377.02,240.59 379.58,237.92 L 382.33 235.05 L 377.91 233.05 C367.53,228.33 355.95,232.29 350.85,242.29 C349.24,245.45 348.87,247.69 349.18,252.55 C349.63,259.55 352.17,264.21 357.56,267.90 C364.10,272.38 369.88,272.97 377.06,269.88 ZM 395.00 264.00 L 395.00 256.00 L 401.00 256.00 L 407.00 256.00 L 407.00 264.00 L 407.00 272.00 L 412.00 272.00 L 417.00 272.00 L 417.00 252.50 L 417.00 233.00 L 412.00 233.00 L 407.00 233.00 L 407.00 240.50 L 407.00 248.00 L 401.00 248.00 L 395.00 248.00 L 395.00 240.50 L 395.00 233.00 L 390.50 233.00 L 386.00 233.00 L 386.00 252.50 L 386.00 272.00 L 390.50 272.00 L 395.00 272.00 L 395.00 264.00 ZM 170.75 298.92 C168.74,297.75 168.40,293.00 170.20,291.20 C170.86,290.54 172.57,290.00 174.00,290.00 C177.30,290.00 179.00,291.70 179.00,295.00 C179.00,299.51 175.01,301.40 170.75,298.92 ZM 176.50 295.01 C176.50,293.39 175.86,292.40 174.64,292.17 C172.08,291.68 170.67,293.38 171.49,295.96 C172.49,299.12 176.50,298.36 176.50,295.01 ZM 186.00 295.00 C186.00,289.17 187.65,288.41 190.88,292.75 L 192.94 295.50 L 192.97 292.75 C192.99,291.24 193.45,290.00 194.00,290.00 C194.55,290.00 195.00,292.25 195.00,295.00 C195.00,297.75 194.68,300.00 194.29,300.00 C193.90,300.00 192.56,298.76 191.32,297.25 L 189.07 294.50 L 189.04 297.25 C189.01,299.01 188.46,300.00 187.50,300.00 C186.37,300.00 186.00,298.78 186.00,295.00 ZM 203.00 295.00 C203.00,292.25 203.45,290.00 204.00,290.00 C204.55,290.00 205.00,291.80 205.00,294.00 C205.00,297.60 205.25,298.00 207.50,298.00 C208.88,298.00 210.00,298.45 210.00,299.00 C210.00,299.55 208.43,300.00 206.50,300.00 L 203.00 300.00 L 203.00 295.00 ZM 216.00 295.00 C216.00,292.25 216.45,290.00 217.00,290.00 C217.55,290.00 218.00,292.25 218.00,295.00 C218.00,297.75 217.55,300.00 217.00,300.00 C216.45,300.00 216.00,297.75 216.00,295.00 ZM 226.00 295.00 C226.00,289.36 226.92,288.81 229.93,292.63 L 232.00 295.27 L 232.00 292.63 C232.00,290.96 232.55,290.00 233.50,290.00 C234.63,290.00 235.00,291.22 235.00,295.00 C235.00,301.00 233.24,301.63 230.12,296.75 L 228.03 293.50 L 228.02 296.75 C228.01,298.54 227.55,300.00 227.00,300.00 C226.45,300.00 226.00,297.75 226.00,295.00 ZM 242.00 295.00 L 242.00 290.00 L 245.50 290.00 C247.43,290.00 249.00,290.45 249.00,291.00 C249.00,291.55 247.88,292.00 246.50,292.00 C245.12,292.00 244.00,292.45 244.00,293.00 C244.00,293.55 244.90,294.00 246.00,294.00 C247.10,294.00 248.00,294.45 248.00,295.00 C248.00,295.55 247.10,296.00 246.00,296.00 C244.90,296.00 244.00,296.45 244.00,297.00 C244.00,297.55 245.12,298.00 246.50,298.00 C247.88,298.00 249.00,298.45 249.00,299.00 C249.00,299.55 247.43,300.00 245.50,300.00 L 242.00 300.00 L 242.00 295.00 ZM 264.71 299.38 C263.21,297.88 264.10,296.99 266.50,297.59 C268.04,297.98 269.00,297.79 269.00,297.11 C269.00,296.50 268.36,296.00 267.57,296.00 C265.46,296.00 263.00,293.16 263.65,291.47 C264.30,289.78 269.55,289.47 270.54,291.07 C271.56,292.71 270.22,293.43 268.61,292.09 C267.64,291.29 266.97,291.24 266.53,291.95 C266.18,292.52 267.06,293.53 268.49,294.18 C271.92,295.74 271.58,299.37 267.96,299.80 C266.57,299.96 265.10,299.77 264.71,299.38 ZM 280.00 296.00 C280.00,293.11 279.58,292.00 278.50,292.00 C277.67,292.00 277.00,291.55 277.00,291.00 C277.00,290.45 279.02,290.00 281.50,290.00 C283.98,290.00 286.00,290.45 286.00,291.00 C286.00,291.55 285.33,292.00 284.50,292.00 C283.42,292.00 283.00,293.11 283.00,296.00 C283.00,298.89 282.58,300.00 281.50,300.00 C280.42,300.00 280.00,298.89 280.00,296.00 ZM 292.41 297.50 C290.89,295.18 290.89,294.82 292.41,292.50 C293.50,290.83 294.96,290.00 296.82,290.00 C300.30,290.00 302.00,291.65 302.00,295.00 C302.00,298.35 300.30,300.00 296.82,300.00 C294.96,300.00 293.50,299.17 292.41,297.50 ZM 298.99 296.51 C300.77,294.37 299.45,291.80 296.76,292.18 C294.20,292.55 293.13,295.83 295.15,297.11 C297.03,298.30 297.58,298.22 298.99,296.51 ZM 309.00 294.94 L 309.00 289.88 L 312.75 290.19 L 316.50 290.50 L 316.55 295.25 C316.59,299.92 314.91,301.81 313.64,298.50 C313.32,297.67 312.60,297.00 312.03,297.00 C311.46,297.00 311.00,297.67 311.00,298.50 C311.00,299.33 310.55,300.00 310.00,300.00 C309.45,300.00 309.00,297.72 309.00,294.94 ZM 314.30 293.51 C314.41,292.97 313.71,292.38 312.75,292.19 C311.66,291.98 311.00,292.47 311.00,293.50 C311.00,295.24 313.96,295.25 314.30,293.51 ZM 324.00 295.00 L 324.00 290.00 L 327.50 290.00 C329.42,290.00 331.00,290.45 331.00,291.00 C331.00,291.55 330.10,292.00 329.00,292.00 C327.90,292.00 327.00,292.45 327.00,293.00 C327.00,293.55 327.90,294.00 329.00,294.00 C330.10,294.00 331.00,294.45 331.00,295.00 C331.00,295.55 330.10,296.00 329.00,296.00 C327.90,296.00 327.00,296.45 327.00,297.00 C327.00,297.55 327.90,298.00 329.00,298.00 C330.10,298.00 331.00,298.45 331.00,299.00 C331.00,299.55 329.42,300.00 327.50,300.00 L 324.00 300.00 L 324.00 295.00 ZM 127.00 246.00 L 127.00 241.00 L 133.46 241.00 C138.83,241.00 140.11,241.33 140.96,242.93 C143.77,248.17 140.94,251.00 132.93,251.00 L 127.00 251.00 L 127.00 246.00 ZM 171.00 258.55 C171.00,257.29 173.43,253.00 174.13,253.00 C174.58,253.00 175.65,254.35 176.50,256.00 L 178.05 259.00 L 174.53 259.00 C172.59,259.00 171.00,258.80 171.00,258.55 ZM 206.00 252.50 L 206.00 242.00 L 211.10 242.00 C215.51,242.00 216.59,242.42 219.10,245.11 C223.35,249.66 223.16,255.04 218.60,259.60 C215.72,262.48 214.50,263.00 210.60,263.00 L 206.00 263.00 L 206.00 252.50 ZM 329.00 258.22 C329.00,257.79 329.72,256.42 330.60,255.16 C332.12,252.99 332.26,252.97 333.57,254.69 C335.77,257.60 335.26,259.00 332.00,259.00 C330.35,259.00 329.00,258.65 329.00,258.22 Z" fill="rgb(254,254,254)"/>
</g>
</svg>